<svg xmlns="http://www.w3.org/2000/svg" width="120" height="120" viewBox="40 -14 120 120">
    <g fill="none" fill-rule="evenodd">
        <path fill="#13BF99" d="M73.137 48.56H48.961L61.05 69.495z"/>
        <path fill="#71D9C2" d="M85.226 69.496H61.049l12.089 20.938z"/>
        <path fill="#42CCAD" d="M61.05 69.496h24.176L73.137 48.56z"/>
        <path fill="#13BF99" d="M88.852 71.59L76.764 92.529h24.176z"/>
        <path fill="#71D9C2" d="M113.028 71.59L100.94 92.529h24.177z"/>
        <path fill="#42CCAD" d="M100.94 92.528L113.03 71.59H88.852z"/>
        <path fill="#13BF99" d="M116.655 69.497l12.088 20.938 12.088-20.938z"/>
        <path fill="#71D9C2" d="M128.743 48.56l12.088 20.936L152.92 48.56z"/>
        <path fill="#42CCAD" d="M140.831 69.496L128.743 48.56l-12.088 20.937z"/>
        <path fill="#13BF99" d="M128.743 44.37h24.176l-12.088-20.938z"/>
        <path fill="#71D9C2" d="M116.655 23.432h24.176L128.743 2.494z"/>
        <path fill="#42CCAD" d="M140.831 23.432h-24.176l12.088 20.937z"/>
        <path fill="#13BF99" d="M113.028 21.338L125.117.401H100.94z"/>
        <path fill="#71D9C2" d="M88.852 21.338L100.94.401H76.764z"/>
        <path fill="#42CCAD" d="M100.94.4L88.852 21.339h24.177z"/>
        <path fill="#13BF99" d="M85.226 23.432L73.138 2.494 61.049 23.432z"/>
        <path fill="#71D9C2" d="M73.137 44.37L61.05 23.431 48.961 44.369z"/>
        <path fill="#42CCAD" d="M61.05 23.432l12.087 20.937 12.089-20.937z"/>
    </g>
</svg>
