<svg xmlns="http://www.w3.org/2000/svg" width="160" height="156" viewBox="0 0 160 156">
    <g fill="none" fill-rule="evenodd">
        <path fill="#954A97" d="M14.882 90.076c-.883 5.106 3.057 7.373 7.588 3.26 3.229-2.932 13.105-5.796 18.515-7.2a4.393 4.393 0 0 0 3.22-5.01C42.179 69.52 33.719 67.315 32.604 67.537c-3.89.774-16.838 17.432-17.721 22.539"/>
        <path fill="#F8F8F8" d="M26.345 100.884l-1.78-8.215c-.217-1.006-1.222-1.648-2.243-1.433a1.864 1.864 0 0 0-1.454 2.212l.177.816-8.546-5.681a4.337 4.337 0 0 0-3.46-.608 11.775 11.775 0 0 0-4.096 1.928 11.92 11.92 0 0 0-2.174 2.06 12.193 12.193 0 0 0-2.42 4.882c-.166.69-.276 1.403-.323 2.132a12.78 12.78 0 0 0 3.32 9.424 12.45 12.45 0 0 0 4.5 3.136c.934.379 1.91.641 2.91.78h.001a11.87 11.87 0 0 0 4.53-.248 4.233 4.233 0 0 0 1.597-.79c.467-.37.858-.838 1.142-1.381l4.533-8.648.089.412c.218 1.007 1.223 1.65 2.244 1.434a1.864 1.864 0 0 0 1.453-2.212"/>
        <path fill="#712473" d="M123.09 105.552c-.498 5.01-.408 10.657 2.405 15.062 1.626 2.547 4.066 4.216 6.785 5.479 1.64.762 3.276 1.487 4.531 2.838 1.456 1.566 2.044 3.77.643 5.556-1.14 1.453-3.157 2.154-4.978 2.108-2.623-.067-5.217-1.12-7.473-2.374-4.16-2.313-6.699-6.27-7.47-10.891-.715-4.29.07-9.302 2.636-13.68.853-1.452 1.906-2.764 2.922-4.098M48.155 22.572s-8.47-5.796-8.543.653c-.072 6.449 5.702 9.372 5.702 9.372l2.841-10.025zM123.495 20.869s9.392-4.348 8.482 1.932c-.911 6.28-7.157 8.244-7.157 8.244l-1.325-10.176z"/>
        <path fill="#954A97" d="M120.397 129.022c-3.467 2.251-1.07 6.155.062 9.018 1.153 2.913 1.186 6.337.238 9.315-1.198 3.764-5.363 9.089-10.019 7.619-1.71-.54-2.726-2.068-3.185-3.717-1.12-4.025-2.444-8.135-4.605-11.748-.938-1.568-2.107-3.226-3.755-4.13-1.74-.957-3.934-.31-5.77-.05-2.277.323-4.65.387-6.948.292-1.271-.052-2.53-.175-3.776-.428-1.218-.249-2.49-.494-3.583.274-1.114.783-1.922 2-2.605 3.148-2.238 3.765-3.57 8.094-4.696 12.292-1.265 4.72-6.07 4.661-9.356 1.925-4.755-3.96-5.455-10.83-3.279-16.304 1.184-2.977 2.736-6.442-1.098-8.395-13.992-7.13-25.412-19.375-29.059-35.22-5.087-22.1 2.665-47.809 13.724-66.888C52.041 9.888 67.421.044 85.68.044c18.01 0 30.292 8.381 39.654 20.685 5.146 6.763 9.409 14.71 13.257 23.102 10.035 21.885 15.828 51.157-.415 71.456-4.542 5.677-10.402 10.023-16.95 13.196l-.83.54"/>
        <path fill="#C5809F" d="M128.932 91.194c0 18.646-18.083 33.761-40.388 33.761-22.306 0-40.389-15.115-40.389-33.761s18.083-33.761 40.389-33.761c22.305 0 40.388 15.115 40.388 33.76"/>
        <path fill="#954A97" d="M159.883 93.725c-.324 3.006-3.76 3.103-6.624-.086-2.144-2.387-9.2-6.242-12.94-8.187-1.505-.781-2.63-2.48-2.598-3.995.205-9.777 7.706-11.024 8.808-10.597 3.932 1.524 13.727 19.407 13.354 22.865"/>
        <path fill="#C5809F" d="M87.767 37.642c0 4.929-4.173 8.925-9.32 8.925-5.148 0-9.32-3.996-9.32-8.925 0-4.93 4.172-8.926 9.32-8.926 5.147 0 9.32 3.996 9.32 8.926"/>
        <path fill="#C5809F" d="M104.854 37.642c0 4.929-4.172 8.925-9.32 8.925-5.147 0-9.32-3.996-9.32-8.925 0-4.93 4.173-8.926 9.32-8.926 5.148 0 9.32 3.996 9.32 8.926"/>
        <path stroke="#050101" stroke-linecap="round" stroke-width=".777" d="M80.777 31.824s-16.294-.83-20.971 25.609M97.087 33.373s14.134 5.267 15.534 24.836M81.553 34.15S68.74 42.847 68.35 56.656M80.777 33.373s-12.403 5.07-15.534 17.85M94.757 35.701s8.213 5.648 10.874 15.523"/>
        <path fill="#712473" d="M97.864 32.209c0 4.5-4.52 8.15-10.097 8.15-5.576 0-10.097-3.65-10.097-8.15 0-4.501 4.52-8.15 10.097-8.15 5.576 0 10.097 3.649 10.097 8.15"/>
        <path fill="#050101" d="M86.214 37.254a.776.776 0 1 1-1.553-.001.776.776 0 0 1 1.553.001M90.097 37.254a.776.776 0 1 1-1.553-.001.776.776 0 0 1 1.553.001"/>
        <g>
            <path fill="#FEFEFE" d="M135.146 33.373a4.658 4.658 0 0 1-4.66 4.657 4.658 4.658 0 0 1-4.66-4.657 4.658 4.658 0 0 1 4.66-4.657 4.658 4.658 0 0 1 4.66 4.657"/>
            <path fill="#050101" d="M134.369 33.373a3.882 3.882 0 0 1-3.884 3.88 3.882 3.882 0 0 1 0-7.761 3.882 3.882 0 0 1 3.884 3.881"/>
        </g>
        <g>
            <path fill="#FEFEFE" d="M45.825 34.15a4.658 4.658 0 0 1-4.66 4.656 4.658 4.658 0 0 1-4.66-4.657 4.658 4.658 0 0 1 4.66-4.656 4.658 4.658 0 0 1 4.66 4.656"/>
            <path fill="#050101" d="M45.049 34.15a3.882 3.882 0 0 1-3.884 3.88 3.882 3.882 0 0 1-3.883-3.88 3.882 3.882 0 0 1 3.883-3.881 3.882 3.882 0 0 1 3.884 3.88"/>
        </g>
        <path fill="#954A97" d="M21.744 96.123c-.778.37-1.418-.188-1.168-1.115.186-.695-.158-2.415-.364-3.313-.082-.361.122-.789.491-.998 2.378-1.349 4.024-.276 4.12-.032.341.87-2.184 5.03-3.079 5.458M153.228 95.999c.843.555 1.73.105 1.64-.923-.066-.77.727-2.505 1.173-3.405.18-.362.031-.854-.36-1.152-2.528-1.923-4.726-1.146-4.894-.91-.6.842 1.472 5.75 2.441 6.39"/>
    </g>
</svg>
