<svg xmlns="http://www.w3.org/2000/svg" width="240" height="54" viewBox="0 0 240 54">
    <path fill="#000" fill-rule="evenodd" d="M108.236 4.737h4.706c2.595 0 4.706 2.124 4.706 4.737v5.666c0 2.612-2.11 4.736-4.706 4.736h-4.706V4.736zm14.118 10.403V9.474c0-5.233-4.214-9.474-9.412-9.474h-9.411v24.613h9.411c5.198 0 9.412-4.241 9.412-9.473zm56.47 0V9.474c0-2.613 2.112-4.737 4.706-4.737 2.595 0 4.706 2.124 4.706 4.737v5.666c0 2.612-2.11 4.736-4.706 4.736-2.594 0-4.706-2.124-4.706-4.736m14.118 0V9.474c0-5.233-4.214-9.474-9.412-9.474s-9.411 4.241-9.411 9.474v5.666c0 5.232 4.213 9.473 9.411 9.473 5.198 0 9.412-4.241 9.412-9.473m-28.6 9.473h5.435l-7.06-12.306L169.778 0h-5.434L160 7.57 155.66 0h-5.434l7.059 12.307-7.059 12.306h5.435l4.341-7.57 4.342 7.57zm-21.176-4.737h-11.4v-5.2h9.411V9.937h-9.411V4.737h11.4L145.883 0H127.06v24.613h18.823l-2.717-4.737zm68.6-4.102L202.718 0h-5.07v24.613h4.706V8.84l9.048 15.774h5.07V0h-4.706v15.774zm1.987 17.679l2.717-4.737h-18.824v24.613h18.824l-2.717-4.737h-11.401v-5.201h9.412v-4.737h-9.412v-5.201h11.401zm-86.694 11.671l-4.706-16.409h-4.706l-4.706 16.41-4.705-16.41h-4.706l7.058 24.614h4.706L120 36.92l4.706 16.409h4.706l7.058-24.613h-4.706l-4.705 16.408zm37.646-16.409H160V53.33H174.117l.002-4.737h-9.414V28.715zm18.824 0h-4.706V53.33h14.117l.002-4.737h-9.413V28.715zm37.647 0v4.737h7.059V53.33h4.705V33.452H240v-4.737h-18.824zM143.62 44.807l2.263-7.887 2.26 7.887h-4.523zm-.091-16.092L136.47 53.33h4.706l1.085-3.785h7.24l1.087 3.785h4.706l-7.06-24.614h-4.706zM18.824 0L40 36.92l-9.412 16.409L0 0h18.824zM61.176 53.33L30.588 0h61.177L61.176 53.33z"/>
</svg>
